<?xml version="1.0" encoding="UTF-8" standalone="no"?>
<!-- Created with Inkscape (http://www.inkscape.org/) -->

<svg
   width="1000"
   height="1000"
   viewBox="0 0 264.58333 264.58333"
   version="1.1"
   id="svg1"
   xml:space="preserve"
   inkscape:version="1.4 (e7c3feb100, 2024-10-09)"
   sodipodi:docname="Logo.svg"
   inkscape:export-filename="logo.png"
   inkscape:export-xdpi="96"
   inkscape:export-ydpi="96"
   xmlns:inkscape="http://www.inkscape.org/namespaces/inkscape"
   xmlns:sodipodi="http://sodipodi.sourceforge.net/DTD/sodipodi-0.dtd"
   xmlns="http://www.w3.org/2000/svg"
   xmlns:svg="http://www.w3.org/2000/svg"><sodipodi:namedview
     id="namedview1"
     pagecolor="#ffffff"
     bordercolor="#000000"
     borderopacity="0.25"
     inkscape:showpageshadow="2"
     inkscape:pageopacity="0.0"
     inkscape:pagecheckerboard="0"
     inkscape:deskcolor="#d1d1d1"
     inkscape:document-units="mm"
     inkscape:zoom="0.58254855"
     inkscape:cx="33.473605"
     inkscape:cy="510.68705"
     inkscape:window-width="1920"
     inkscape:window-height="1008"
     inkscape:window-x="0"
     inkscape:window-y="0"
     inkscape:window-maximized="1"
     inkscape:current-layer="layer2" /><defs
     id="defs1" /><g
     inkscape:label="Background"
     inkscape:groupmode="layer"
     id="layer1"
     sodipodi:insensitive="true"
     style="display:none"><rect
       style="fill:#096a2e;fill-opacity:1;stroke-width:0.594791"
       id="rect1"
       width="264.58334"
       height="264.58334"
       x="-1.5894572e-07"
       y="-1.4210855e-14"
       inkscape:label="Green Rectangle" /></g><g
     inkscape:groupmode="layer"
     id="layer2"
     inkscape:label="Logo"><rect
       style="fill:#096a2e;fill-opacity:1;stroke-width:0.264583"
       id="rect2"
       width="220.13457"
       height="63.987057"
       x="22.339918"
       y="99.697403"
       rx="5"
       ry="5"
       inkscape:export-filename="logo.png"
       inkscape:export-xdpi="96"
       inkscape:export-ydpi="96" /><circle
       style="fill:#c9efc7;fill-opacity:1;stroke-width:0.336487"
       id="path1"
       cx="55.495903"
       cy="132.94405"
       r="26.458334"
       inkscape:label="Circle"
       inkscape:export-filename="logo.png"
       inkscape:export-xdpi="96"
       inkscape:export-ydpi="96" /><path
       fill="#000000"
       d="m 65.041126,111.80822 c -0.12019,0.0858 -0.841333,0.75549 -1.579646,1.51097 l -1.339265,1.33926 -0.600953,-0.58378 c -0.652462,-0.63529 -0.910013,-0.78982 -1.287755,-0.70397 -0.188871,0.0343 -1.785687,1.59682 -7.074068,6.86803 -3.760245,3.76024 -6.885198,6.91954 -6.953878,7.03973 -0.06868,0.12019 -0.103021,0.3434 -0.103021,0.49793 0,0.25755 0.06868,0.36057 0.652463,0.96152 l 0.652463,0.66963 -1.425116,1.44229 c -0.789823,0.78982 -1.476626,1.54531 -1.528136,1.6655 -0.05151,0.12019 -0.06868,0.32623 -0.03434,0.44642 0.03434,0.13736 0.721142,0.89284 1.957387,2.12909 1.785688,1.78568 1.940218,1.92304 2.197769,1.92304 0.394912,0 0.669633,-0.22321 2.163429,-1.73417 l 1.270585,-1.27059 0.600952,0.60096 c 0.669633,0.66963 0.927184,0.80699 1.304926,0.66963 0.15453,-0.0515 0.738313,-0.56661 1.528136,-1.37361 1.270585,-1.28775 1.287755,-1.30492 1.287755,-1.64832 0,-0.30907 -0.05151,-0.39492 -0.480762,-0.91002 -2.300789,-2.64419 -2.249279,-6.52462 0.120191,-9.03145 1.373605,-1.44229 2.987592,-2.16343 4.944979,-2.16343 1.682667,0 3.107783,0.53227 4.412708,1.63115 0.257551,0.22321 0.549442,0.44643 0.652463,0.51511 0.309061,0.1717 0.652462,0.0343 1.133224,-0.4636 0.738313,-0.75548 0.721143,-1.0302 -0.15453,-1.92304 l -0.600953,-0.61813 1.390776,-1.40794 c 0.772653,-0.77266 1.425116,-1.47663 1.476626,-1.57965 0.05151,-0.10302 0.08585,-0.30906 0.08585,-0.46359 0,-0.29189 -0.10302,-0.39491 -1.802857,-2.11192 -1.030204,-1.0302 -1.923048,-1.88871 -2.043238,-1.95739 -0.291891,-0.15453 -0.532272,-0.13736 -0.824164,0.0343 z"
       id="path1-5"
       style="fill:#096a2e;fill-opacity:1;stroke-width:0.171701"
       inkscape:label="Symbol.Upper" /><path
       fill="#000000"
       d="m 60.181997,121.92139 c -1.820027,0.39492 -3.416844,1.95739 -3.828925,3.76025 -0.06868,0.29189 -0.120191,0.80699 -0.120191,1.18473 0,1.42512 0.463592,2.524 1.459456,3.53704 1.253415,1.27058 2.884572,1.76852 4.601578,1.40794 1.888708,-0.39491 3.365334,-1.80285 3.863266,-3.67439 0.171701,-0.65246 0.188871,-1.85437 0,-2.50683 -0.686803,-2.66136 -3.313823,-4.29252 -5.975184,-3.70874 z"
       id="path2"
       style="fill:#096a2e;fill-opacity:1;stroke-width:0.171701"
       inkscape:label="Symbol.Middle" /><path
       fill="#000000"
       d="m 67.462106,129.88831 c -0.10302,0.0515 -0.394911,0.37774 -0.652462,0.73831 -0.806994,1.15039 -1.751347,1.88871 -3.090613,2.45532 -0.360571,0.15453 -0.721143,0.3434 -0.806993,0.42925 -0.188871,0.18887 -0.206041,0.60095 -0.05151,1.52814 0.309061,1.97455 -0.171701,4.15515 -1.339266,6.04386 -0.549442,0.89284 -1.854367,2.23211 -2.712871,2.79872 -1.116054,0.72115 -2.283619,1.18474 -3.605714,1.42512 -0.652463,0.12019 -2.609851,0.12019 -3.468354,0 -1.442286,-0.20604 -2.918912,-0.6868 -3.846095,-1.25342 l -0.480762,-0.29189 2.455319,-0.0343 c 1.356436,-0.0172 2.506831,-0.0687 2.575511,-0.10302 0.06868,-0.0343 0.188871,-0.1717 0.257551,-0.29189 0.12019,-0.20604 0.13736,-0.48076 0.13736,-2.12909 0,-1.71701 -0.01717,-1.90588 -0.15453,-2.12909 -0.103021,-0.1717 -0.257551,-0.29189 -0.446422,-0.3434 -0.206041,-0.0687 -2.57551,-0.0859 -8.035592,-0.0687 l -7.743701,0.0172 -0.223211,0.25755 -0.223211,0.25755 v 2.02607 2.04324 l 0.223211,0.22321 0.223211,0.22321 h 1.219074 1.219075 l 0.377742,0.73831 c 0.600952,1.1504 1.339265,2.14626 2.43815,3.24515 l 1.013034,1.01303 v 1.47663 1.47662 l 0.274721,0.27472 0.274721,0.27473 h 12.122069 12.122068 l 0.274721,-0.27473 0.274722,-0.27472 v -2.78155 c 0,-3.02193 -0.01717,-3.12495 -0.429252,-3.31382 -0.103021,-0.0515 -0.343402,-0.10302 -0.515102,-0.10302 -0.171701,0 -0.309061,-0.0172 -0.309061,-0.0343 0,0 0.15453,-0.27472 0.360571,-0.56661 0.549442,-0.82417 1.322095,-2.42098 1.665497,-3.34817 0.635292,-1.82002 0.910013,-3.46835 0.910013,-5.40857 0,-1.82003 -0.309061,-3.5542 -0.892843,-5.23687 -0.206041,-0.58378 -0.309061,-0.73831 -0.515102,-0.89284 -0.377742,-0.20604 -0.600953,-0.22321 -0.875674,-0.0858 z"
       id="path3"
       style="fill:#096a2e;fill-opacity:1;stroke-width:0.171701"
       inkscape:label="Symbol.Lower" /><text
       xml:space="preserve"
       style="font-size:45.8611px;text-align:start;writing-mode:lr-tb;direction:ltr;text-anchor:start;fill:#c9efc7;fill-opacity:1;stroke-width:0.264583"
       x="89.950043"
       y="140.43837"
       id="text1"
       inkscape:label="Text.Name"><tspan
         sodipodi:role="line"
         id="tspan1"
         style="font-style:normal;font-variant:normal;font-weight:500;font-stretch:normal;font-size:45.8611px;font-family:'LT Museum';-inkscape-font-specification:'LT Museum Medium';fill:#c9efc7;fill-opacity:1;stroke-width:0.264583"
         x="89.950043"
         y="140.43837">analites</tspan></text><text
       xml:space="preserve"
       style="font-style:normal;font-variant:normal;font-weight:300;font-stretch:normal;font-size:10.5833px;font-family:'LT Museum';-inkscape-font-specification:'LT Museum Light';text-align:start;letter-spacing:5.82083px;writing-mode:lr-tb;direction:ltr;text-anchor:start;fill:#c9efc7;fill-opacity:1;stroke-width:0.264583"
       x="93.986977"
       y="154.24863"
       id="text2"
       inkscape:label="Text.Slogan"><tspan
         sodipodi:role="line"
         id="tspan2"
         style="font-size:10.5833px;letter-spacing:5.82083px;stroke-width:0.264583"
         x="93.986977"
         y="154.24863">LABORATÓRIOS</tspan></text></g></svg>
